<svg width="30" height="30" viewBox="0 0 30 30" fill="none" xmlns="http://www.w3.org/2000/svg">
<path d="M7 0.5H23C26.5898 0.5 29.5 3.41015 29.5 7V23C29.5 26.5898 26.5899 29.5 23 29.5H7C3.41015 29.5 0.5 26.5899 0.5 23V7C0.5 3.41015 3.41015 0.5 7 0.5Z" fill="white" stroke="#F8F8F8"/>
<path d="M14.6719 9.30774L14.9754 9.68274L15.3035 9.30837C16.2195 8.28806 17.4883 7.82368 18.7352 8.06087C20.6191 8.41962 22 10.2827 22 12.4671V12.6484C22 13.9452 21.5297 15.1859 20.6984 16.0702L15.7574 21.3421C15.5523 21.5609 15.2816 21.6827 15 21.6827C14.7184 21.6827 14.4477 21.5609 14.2426 21.3421L9.30129 16.0702C8.47113 15.1859 8 13.9452 8 12.6484V12.4671C8 10.2827 9.38141 8.41962 11.2648 8.06087C12.4871 7.82368 13.7805 8.28806 14.6719 9.30774ZM14.9754 11.8046L13.7449 10.3421C13.1516 9.69149 12.3094 9.38274 11.4809 9.54024C10.2299 9.77868 9.3125 11.0171 9.3125 12.4671V12.6484C9.3125 13.5296 9.6327 14.3734 10.1968 14.9734L15 20.0984L19.8043 14.9734C20.3676 14.3734 20.6875 13.5296 20.6875 12.6484V12.4671C20.6875 11.0171 19.7688 9.77868 18.5191 9.54024C17.6906 9.38274 16.8484 9.69149 16.2551 10.3421L14.9754 11.8046Z" fill="#9B9090"/>
</svg>
